<svg id="Layer_1" enable-background="new 0 0 100 100" viewBox="0 0 100 100" xmlns="http://www.w3.org/2000/svg"><g clip-rule="evenodd" fill-rule="evenodd"><path d="m75.3564529 79.9748611c4.3393097 1.800293 9.2226028 4.1570663 10.3739777 13.8490753 1.1513748-9.6919098 6.034668-12.0486755 10.3740768-13.8490753-4.3394089-1.8004074-9.2226944-4.1576233-10.3740768-13.8495331-1.151329 9.6919099-6.0346146 12.0491257-10.3739777 13.8495331z"/><path d="m11.9360905 49.9998856c16.025917 6.175003 34.0605716 14.2593841 38.3127575 47.5001144 4.2524681-33.2407303 22.2871246-41.325119 38.3129044-47.5001144-16.0257798-6.1747742-34.0604363-14.2591591-38.3129044-47.4998856-4.2521859 33.2407265-22.2868405 41.3251114-38.3127575 47.4998856z"/><path d="m22.7410355 70.318985c-2.5129375-1.0425186-5.3409481-2.4076309-6.0077477-8.0204315-.6668491 5.6126862-3.4948606 6.9778061-6.0078478 8.0204315 2.5129871 1.0426254 5.3409986 2.4077377 6.0078478 8.0204239.6667996-5.6126862 3.494812-6.9777985 6.0077477-8.0204239z"/><path d="m20.2882919 23.4249725c-3.4284077-1.4221344-7.2866154-3.2844772-8.1964235-10.9419746-.9096603 7.6573868-4.7678676 9.5197296-8.1963749 10.9419746 3.4285071 1.4224644 7.2867146 3.2849293 8.1963749 10.9424248.9098082-7.6574955 4.7680159-9.519947 8.1964235-10.9424248z"/></g></svg>