<?xml version="1.0" encoding="UTF-8"?>
<svg id="Calque_1" data-name="Calque 1" xmlns="http://www.w3.org/2000/svg" viewBox="0 0 151.03 44.48">
  <defs>
    <style>
      .cls-1 {
        fill: #1d1d1b;
      }
    </style>
  </defs>
  <g>
    <path class="cls-1" d="M134.43,44.48c-.74,0-1.42-.06-2.07-.18-.63-.12-1.15-.26-1.55-.42l1.29-4.39c.74.22,1.4.34,1.98.34.59,0,1.11-.15,1.55-.48.44-.33.8-.88,1.09-1.65l.4-1.08-7.95-22.08h5.97s4.82,15.79,4.82,15.79h.23s4.85-15.79,4.85-15.79h6s-8.69,24.1-8.69,24.1c-.41,1.2-.96,2.24-1.65,3.11-.69.88-1.55,1.55-2.58,2.02-1.02.48-2.25.72-3.69.72Z"/>
    <path class="cls-1" d="M128.78,21l-5.16.44c-.11-.49-.33-.94-.66-1.35-.32-.42-.74-.75-1.28-.99-.54-.25-1.18-.38-1.94-.38-1.01,0-1.86.22-2.55.66-.69.44-1.03,1.02-1.03,1.74,0,.59.22,1.09.67,1.48.45.39,1.21.71,2.28.95l3.87.82c2.11.45,3.69,1.17,4.72,2.16,1.04.99,1.56,1.85,1.56,3.47,0,1.44-.41,2.71-1.23,3.8-.82,1.09-1.96,1.94-3.4,2.56-1.44.61-3.1.92-4.98.92-2.8,0-5.05-.6-6.74-1.8-1.68-1.2-2.68-2.4-2.98-4.5l5.54-.41c.21.96.67,1.68,1.39,2.18.73.5,1.66.75,2.8.75s2.08-.23,2.78-.7c.71-.48,1.06-1.07,1.06-1.78,0-.6-.24-1.1-.72-1.49-.47-.4-1.2-.7-2.18-.91l-3.79-.79c-2.13-.45-3.71-1.21-4.75-2.28-1.02-1.07-1.53-2.44-1.53-4.09,0-1.41.38-2.64,1.13-3.67.76-1.03,1.83-1.83,3.2-2.38,1.38-.57,2.97-.85,4.79-.85,2.69,0,4.8.58,6.34,1.74,1.55,1.16,2.48,2.73,2.78,4.72Z"/>
    <path class="cls-1" d="M96.33,37.29c-1.4,0-2.65-.25-3.76-.76-1.11-.51-1.98-1.26-2.62-2.25-.64-1-.96-1.8-.96-3.28,0-1.26.22-2.31.67-3.14.46-.84,1.08-1.51,1.86-2.02.78-.51,1.67-.89,2.67-1.16.99-.26,2.03-.45,3.11-.56,1.29-.14,2.33-.26,3.13-.38.79-.12,1.37-.3,1.72-.54.36-.24.54-.61.54-1.1v-.09c0-1.01-.3-1.8-.9-2.35-.6-.56-1.47-.83-2.6-.83-1.19,0-2.13.26-2.83.79-.69.53-1.15,1.17-1.39,1.93l-5.25-.58c.33-1.36.93-2.52,1.79-3.48.86-.97,1.94-1.7,3.24-2.19,1.31-.51,2.79-.76,4.43-.76,1.15,0,2.26.14,3.34.41,1.09.27,2.07.71,2.94,1.3.88.59,1.58,1.38,2.09,2.37.52.97.77,2.17.77,3.58v15.09s-5.39,0-5.39,0v-3.54s-.17,0-.17,0c-.33.66-.79,1.26-1.38,1.8-.57.54-1.29.96-2.14,1.27-.84.31-1.82.47-2.94.47ZM97.88,33.63c.98,0,1.83-.2,2.55-.59.73-.4,1.29-.93,1.69-1.59.4-.66.6-1.4.6-2.21v-2.52c-.17.13-.44.25-.8.37-.35.11-.76.2-1.2.29-.44.08-.88.15-1.32.22-.44.07-.83.13-1.18.18-.75.11-1.41.28-1.98.53-.57.23-1.02.56-1.35.98-.33.41-.49.93-.49,1.56,0,.91.33,1.6.98,2.08.66.47,1.49.7,2.5.7Z"/>
    <path class="cls-1" d="M67.97,37.29V7.34s19.45,0,19.45,0v4.88s-13.68,0-13.68,0v7.63h12.68s0,4.88,0,4.88h-12.68v7.66h13.77s0,4.88,0,4.88h-19.53Z"/>
    <path class="cls-1" d="M44,37.29V7.34s11.3,0,11.3,0c2.24,0,4.13.4,5.68,1.2,1.56.8,2.74,1.93,3.54,3.38.81,1.45,1.22,3.15,1.22,5.1,0,1.95-.41,3.64-1.23,5.06-.81,1.41-2.01,2.51-3.59,3.28-1.57.76-3.48,1.14-5.74,1.14h-7.8s0-4.8,0-4.8h6.94c1.25,0,2.29-.18,3.1-.53.81-.36,1.42-.89,1.81-1.58.4-.69.6-1.55.6-2.57s-.2-1.91-.6-2.62c-.39-.72-1-1.27-1.82-1.64-.81-.38-1.85-.57-3.11-.57h-4.53v25.09s-5.77,0-5.77,0ZM59.52,23.69l7.29,13.6h-6.4s-7.14-13.6-7.14-13.6h6.25Z"/>
  </g>
  <g>
    <path class="cls-1" d="M14.13,44.48h-7.06c-3.89,0-7.06-3.2-7.06-7.13,0-3.93,3.17-7.14,7.06-7.14s7.06,3.2,7.06,7.14v7.13Z"/>
    <path class="cls-1" d="M14.48,29.13c-7.96,0-14.42-6.52-14.42-14.56C.06,6.52,6.52,0,14.48,0v29.13Z"/>
    <path class="cls-1" d="M28.8,41.82h0s1.9,2.66,1.9,2.66h-14.07s0-44.48,0-44.48l.59.08c.1.02.51.08.61.1,3,.59,5.63,1.71,7.94,3.41,1.11.81,2.12,1.73,3.03,2.75,1.12,1.25,2.08,2.65,2.84,4.16,1.39,2.74,2.15,5.85,2.1,9.18-.07,5.09-1.67,9.57-4.95,13.31-1.09,1.24-2.36,2.4-3.83,3.47l3.83,5.36Z"/>
  </g>
</svg>